<svg xmlns="http://www.w3.org/2000/svg" viewBox="0 0 1024 1024" fill="#d4d4d4ff">
<path d="m1.87,582.75c21.95-134.41,105.62-253.43,233.32-314.29,15.84-7.35,19.26-15.78,18.97-31.49-.83-44.71-.64-89.45-.2-134.17C250.59-.63,382.51-32.99,444.43,37.98c33.6,39.33,15.21,119.72,19.19,169.94-.15,9.48,2.16,11.79,11.43,11.3,18.28-.96,36.64-.64,54.95-.16,7.85.21,10.07-3.16,9.92-10.36-.72-34.56-2.25-69.14-1.65-103.68-6.4-132.57,209.72-141.77,209.82-9.07.54,47.81-.33,95.65.41,143.46,524.56,269.12,231.92,832.46-308.06,781.32C214.46,994.82-23.53,815.27,1.87,582.75ZM676.42,184.09c.1,0,.2,0,.31,0,0-29.16-.07-58.33.04-87.49,1.26-19.75-15-21.11-31.35-22.8-31.03.48-33.88,7.74-33.89,33.5-8.46,205.85,50.61,185.5-177.9,186.32-24.51.8-41.72-16.44-41.11-42.31,1.21-50.91.44-101.88.19-152.82.31-23.29-27.16-28.13-45.17-24.02-13.46,1.5-21.06,10.95-22.42,24.84-.81,59.47-.69,119.02-.02,178.49.32,19.98-7.68,32.65-24.91,39.72C127.6,381.59,8.63,584.25,112.4,746.44c321.21,530.82,1302.68-92.02,595.9-435.83-20.69-5.98-31.42-19.43-31.77-41.35-.45-28.38-.11-56.78-.11-85.16Z"/>
<path d="m503.36,919.96c-98.12,2.74-186.07-22.62-265.74-77.51-69.19-54.68-120.45-135.06-126.12-222.32-6.51-25.76-8.96-74.5,30.59-71.86,13.79.61,27.97,3.49,41,8.2,34.03,13.38,64.26-3.79,96.99-8.6,23.66-.4,47.35.43,70.97-.54,24.24-.99,47.77,1.91,70.7,9.63,44.7,13.26,63.8-20.38,122.13-7.59,49.37,12.73,49.21,18.11,101.1,2.15,24.75-6.83,50.68-2.85,76.05-4.16,30.13-.74,60.05-.03,88.88,10.46,29.36,9.49,56.3-11.55,85.62-9.22,55.63,6.09,19.36,103.03,10.11,135.7-57.32,155.28-235.03,243.43-402.25,234.69l-.04.97Zm-145.32-299.67c-2.89,65.4-.37,131.03-.94,196.56.02,3.13,3.33,8.19,6.09,9.04,12.67,3.92,26.78,4.44,38.36,10.3,22.49,11.38,46.14,7.72,69.92,10.6,3.15-72.38-.51-144.99.53-217.5,0-7.64-3.04-9.14-9.55-9.08-35,.28-69.26.01-104.4.08Zm186.14,113c-.07,0-.14,0-.22,0,0,34.17.14,68.34-.11,102.51-3.66,27.46,81.43-5.75,97.35-6.35,8.33-4.09,19.68-2.29,18.64-13.91-.25-61.35-.39-122.71-.17-184.06.03-8.31-1.53-11.5-10.67-11.35-31.63.52-63.28.27-94.91-.37-7.81-.16-10.04,2.45-10,9.86.19,34.56.08,69.12.08,103.67Zm302.47-112.55c-36.47-1.68-72.83-.04-109.34-1-8.23-.11-8.13,4.27-8.13,10.27,1.35,52.44-3.07,105.5,1.28,157.6,57.7-29.19,118.87-121.08,116.19-166.87Zm-665.65-.84c14.72,69.37,46.77,124.65,103.55,167.04,2.79-52.14.44-103.69,1.16-155.83,0-5.12,1.46-11.35-7.33-11.29-31.23.2-62.46.08-97.38.08Z"/>
<path d="m698.39,368.24c26.81,3.09,54.2,3.66,80.3,9.87,37.73,8.98,72.49,27.04,98.15,57.1,13.42,15.72,19.05,37.26,16.11,59.7-2.86,21.87-15.38,37.92-32.46,48.08-20.81,12.38-44.4,10.37-65.99.15-11.82-5.6-21.62-15.45-33.09-22.02-5.94-3.4-13.51-5.29-20.36-5.35-18.66-.16-37.53-.44-55.91,2.25-9.94,1.45-19.85,7.71-28.35,13.86-23.29,16.85-48.46,23.21-76.57,18.12-23.5-4.26-43.49-16.47-54.02-37.15-10.3-20.22-10.47-43.98,1.98-64.79,14.84-24.81,37.16-40.62,62.19-54.46,34.14-18.87,70.18-23.61,108.01-25.36Zm-98.37,80.55c17.06,4.8,32.31,8.44,37.52,27.68.3,1.1,5.91,2.22,7.79,1.12,22.44-13.16,47.64-13.31,72.12-15.11,23.92-1.77,48.03-.75,69.33,13.61,10.02,6.76,20.16,13.44,30.76,19.19,4.2,2.28,11.63,4.32,14.27,2.19,3.6-2.9,6.35-10.45,5.29-14.99-1.76-7.51-5.39-15.8-10.8-20.97-16.84-16.08-36.67-27.71-59.66-31.89-19.06-3.46-38.33-5.96-57.61-7.79-26.83-2.55-53.21,1.44-78.54,10.28-10.76,3.75-20.33,11.03-30.45,16.7Z"/>
<path d="m443.39,550.34c-63.67-2.91-48.87-48.25-142.21-32.23-11.74,1.98-23.95,8.67-33.25,16.55-62.17,46.93-162.14-8.69-122.45-85.56,61.16-120.07,363.21-105.95,364.11,43.69,2.02,29.37-37.12,61.62-66.19,57.55Zm-227.77-101.46c.24.8.48,1.6.72,2.4,8.98,1.63,29.68,7.45,31.73,13.6,5.66,19.44,13.84,14.1,24.41,6.34,45.4-5.92,95.61-20.62,136.55,7.66,13.95,11.12,47.76,37.1,45.19,1.6-34.54-70.45-179.12-75.11-238.6-31.59Z"/>
</svg>